<svg xmlns="http://www.w3.org/2000/svg" width="45.941" height="34.963" viewBox="0 0 45.941 34.963">
  <defs>
    <style>
      .cls-1 {
        fill: none;
        stroke: #686868;
        stroke-linecap: round;
        stroke-linejoin: round;
        stroke-width: 3px;
      }
    </style>
  </defs>
  <g id="Group_9673" data-amount="Group 9673" transform="translate(-1309.3 -3040.3)">
    <path id="Path_2937" data-amount="Path 2937" class="cls-1" d="M1391.778,3094.091h-.061q-3.466.191-3.343-3.037v-8a2.607,2.607,0,0,1,2.731-3h12.628" transform="translate(-67.005 -33.041)"/>
    <path id="Path_2938" data-amount="Path 2938" class="cls-1" d="M1388.4,3083.89h22.423v-.8q.2-3.323-3.418-3.119" transform="translate(-67.032 -32.966)"/>
    <path id="Path_2939" data-amount="Path 2939" class="cls-1" d="M1388.4,3109.89h22.423v-1.09" transform="translate(-67.032 -57.875)"/>
    <path id="Path_2940" data-amount="Path 2940" class="cls-1" d="M1395.352,3132.747h12.107q3.4.068,3.364-3.309V3124.8H1388.4" transform="translate(-67.032 -71.696)"/>
    <line id="Line_92" data-amount="Line 92" class="cls-1" y1="1.09" transform="translate(1343.792 3052.014)"/>
    <path id="Path_2941" data-amount="Path 2941" class="cls-1" d="M1353.331,3070.835a4.161,4.161,0,0,1-.967,1.586,3.491,3.491,0,0,1-.272.245,5.414,5.414,0,0,1-2.935,1.1H1316.4a7.357,7.357,0,0,1-.872-.116q-4.562-.906-4.733-7.579v-19.386q.2-4.692,5.441-4.882h32.91a5.169,5.169,0,0,1,3.214,1.3,4.555,4.555,0,0,1,1.267,2.839v16.193a4.275,4.275,0,0,1-1.267,3.6,2.869,2.869,0,0,1-.272.191,3.824,3.824,0,0,1-1.675.538H1321.7q-4.188.109-5.332,2.744"/>
  </g>
</svg>
