<svg xmlns="http://www.w3.org/2000/svg" width="103.001" height="38.146" viewBox="0 0 103.001 38.146">
  <g id="Group_9763" data-name="Group 9763" transform="translate(-319 -468.275)">
    <path id="Path_3044" data-name="Path 3044" d="M62.752,121.428a3.559,3.559,0,0,0-3.125-2.1,3.629,3.629,0,0,0-3.174,2.1L35.267,157.074h7.424l16.679-28.58,13.916,22.9H50.591l-3.142,5.678H84.21Z" transform="translate(283.733 349.25)" fill="#e50019" fill-rule="evenodd"/>
    <g id="Group_9694" data-name="Group 9694" transform="translate(348.996 468.275)">
      <g id="Group_13" data-name="Group 13">
        <path id="Path_426" data-name="Path 426" d="M98.959,145.233c4.775-1.861,7.619-6.269,7.619-12.485,0-8.4-4.976-13.733-13.412-13.733H66.208l4.063,6.58h22.9c4.421,0,7.064,2.384,7.064,7.254s-2.441,7.568-7.064,7.568H79.772l3.446,5.8H91.68l6.344,10.942h8.168" transform="translate(-66.208 -119.016)" fill="#e50019"/>
        <path id="Path_427" data-name="Path 427" d="M122.511,119.016H107.967l3.8,6.576,10.749.007c6.653,0,11.529,5.511,11.529,12.609s-4.875,12.332-11.529,12.332l-14.461.014,3.712,6.569h10.749c10.41,0,17.977-8.291,17.977-19.223S132.921,119.016,122.511,119.016Z" transform="translate(-67.483 -119.016)" fill="#e50019"/>
      </g>
    </g>
  </g>
</svg>
