<svg xmlns="http://www.w3.org/2000/svg" width="45.938" height="35.013" viewBox="0 0 45.938 35.013">
  <defs>
    <style>
      .cls-1 {
        fill: rgba(0,0,0,0);
        stroke: #686868;
        stroke-linecap: round;
        stroke-linejoin: round;
        stroke-width: 3px;
      }

      .cls-2, .cls-3 {
        fill: #686868;
      }

      .cls-2 {
        fill-rule: evenodd;
      }
    </style>
  </defs>
  <g id="Group_9668" data-amount="Group 9668" transform="translate(-1301.5 -541.958)">
    <path id="Path_2284" data-amount="Path 2284" class="cls-1" d="M44.53,31.084a4.045,4.045,0,0,1-1.241,1.825,5.439,5.439,0,0,1-2.932,1.1H7.6a8.414,8.414,0,0,1-.873-.123Q2.17,32.991,2,26.3V6.89Q2.2,2.191,7.441,2h32.9c2.7.259,4.186,1.648,4.473,4.141V8.4a6.906,6.906,0,0,0-1.527.163,5.909,5.909,0,0,0-2.823,1.607,5.828,5.828,0,0,0-.982,1.281,5.955,5.955,0,0,0-.791,3.024,5.838,5.838,0,0,0,1.773,4.291,5.909,5.909,0,0,0,2.823,1.607,6.626,6.626,0,0,0,1.486.163h.054v1.812c.041,1.853-.477,3.106-1.541,3.787a3.927,3.927,0,0,1-1.677.531H12.868c-2.8.068-4.582.994-5.345,2.752" transform="translate(1301 541.458)"/>
    <g id="Group_9101" data-amount="Group 9101" transform="translate(1270.733 429.984)">
      <path id="Path_2369" data-amount="Path 2369" class="cls-2" d="M40.336,119.714a.656.656,0,0,0-.576-.387.669.669,0,0,0-.585.387l-3.907,6.574h1.369l3.076-5.271,2.566,4.224H38.093l-.579,1.047h6.78Z" transform="translate(0 -0.255)"/>
      <g id="Group_9100" data-amount="Group 9100" transform="translate(40.799 119.016)">
        <g id="Group_9099" data-amount="Group 9099" transform="translate(0)">
          <path id="Path_2370" data-amount="Path 2370" class="cls-3" d="M72.248,123.851a2.286,2.286,0,0,0,1.405-2.3,2.315,2.315,0,0,0-2.474-2.533H66.208l.749,1.214H71.18a1.186,1.186,0,0,1,1.3,1.338c0,.9-.45,1.4-1.3,1.4H68.71l.635,1.07h1.561l1.17,2.018h1.506" transform="translate(-66.208 -119.016)"/>
          <path id="Path_2371" data-amount="Path 2371" class="cls-3" d="M110.649,119.016h-2.682l.7,1.213h1.982a2.184,2.184,0,0,1,2.126,2.325,2.139,2.139,0,0,1-2.126,2.274l-2.667,0,.685,1.212h1.982a3.346,3.346,0,0,0,3.315-3.545A3.292,3.292,0,0,0,110.649,119.016Z" transform="translate(-100.5 -119.016)"/>
        </g>
      </g>
    </g>
  </g>
</svg>
