<svg xmlns="http://www.w3.org/2000/svg" width="22.884" height="22.884" viewBox="0 0 22.884 22.884">
  <g id="Group_9207" data-name="Group 9207" transform="translate(0.6 0.6)">
    <path id="Path_2568" data-name="Path 2568" d="M1382.6,891.35h1.224V902.6H1382.2v3.318l-3.318-3.318h-9.331v-1.855" transform="translate(-1362.143 -884.234)" fill="none" stroke="red" stroke-linecap="round" stroke-linejoin="round" stroke-width="1.2"/>
    <path id="Path_2569" data-name="Path 2569" d="M1345.892,860.2a.275.275,0,0,1,.013.088.339.339,0,0,1-.2.284.927.927,0,0,1-.473.114.941.941,0,0,1-.48-.114.335.335,0,0,0-.05-.031.378.378,0,0,1-.139-.177,6.322,6.322,0,0,1-1.016-.088q-.139-.025-.271-.063h-.013a.018.018,0,0,0-.013-.006,2.558,2.558,0,0,1-1.823-2.587q-.006-.2,0-.41h-.814a3.985,3.985,0,0,1,0-2.706h.656a3.776,3.776,0,0,1,.479-1.382,4.179,4.179,0,0,1,.517-.719q.082-.088.177-.183a4.124,4.124,0,0,1,1.1-.8,4.008,4.008,0,0,1,1.085-.354,4.581,4.581,0,0,1,1.514,0,2.008,2.008,0,0,1,.24.051,4.018,4.018,0,0,1,1.956,1.1q.094.095.177.183a4.115,4.115,0,0,1,.669,1.009,3.952,3.952,0,0,1,.328,1.092h.662c.025.076.048.149.069.221a4.021,4.021,0,0,1,.151.745,3.779,3.779,0,0,1,0,.814,3.858,3.858,0,0,1-.221.927h-.814V854.5h.151q.038.277.05.562" transform="translate(-1336.649 -848.975)" fill="none" stroke="red" stroke-linecap="round" stroke-linejoin="round" stroke-width="1.2"/>
    <path id="Path_2570" data-name="Path 2570" d="M1347.45,878.75h.158v2.707" transform="translate(-1342.832 -873.223)" fill="none" stroke="red" stroke-linecap="round" stroke-linejoin="round" stroke-width="1.2"/>
    <path id="Path_2571" data-name="Path 2571" d="M1347.05,879.192a3.8,3.8,0,0,1,.051-.442" transform="translate(-1342.482 -873.223)" fill="none" stroke="red" stroke-linecap="round" stroke-linejoin="round" stroke-width="1.2"/>
    <path id="Path_2572" data-name="Path 2572" d="M1373.462,924.064a.234.234,0,0,1-.013-.076.2.2,0,0,1,.019-.088" transform="translate(-1365.551 -912.676)" fill="none" stroke="red" stroke-linecap="round" stroke-linejoin="round" stroke-width="1.2"/>
    <path id="Path_2573" data-name="Path 2573" d="M1374.925,921.716a.4.4,0,0,0-.19-.2.885.885,0,0,0-.473-.12.9.9,0,0,0-.48.12.368.368,0,0,0-.183.2" transform="translate(-1365.682 -910.492)" fill="none" stroke="red" stroke-linecap="round" stroke-linejoin="round" stroke-width="1.2"/>
    <path id="Path_2574" data-name="Path 2574" d="M1373.55,925.2h.139" transform="translate(-1365.639 -913.812)" fill="none" stroke="red" stroke-linecap="round" stroke-linejoin="round" stroke-width="1.2"/>
    <path id="Path_2575" data-name="Path 2575" d="M1310.85,834.95h17.766v13.994h-11.653l-4.278,4.158v-4.158h-1.836Z" transform="translate(-1310.85 -834.95)" fill="none" stroke="red" stroke-linecap="round" stroke-linejoin="round" stroke-width="1.2"/>
    <line id="Line_80" data-name="Line 80" y2="1.621" transform="translate(4.221 6.233)" fill="none" stroke="red" stroke-linecap="round" stroke-linejoin="round" stroke-width="1.2"/>
    <line id="Line_81" data-name="Line 81" y2="1.533" transform="translate(13.281 6.423)" fill="none" stroke="red" stroke-linecap="round" stroke-linejoin="round" stroke-width="1.2"/>
  </g>
</svg>
